Coordinates
version=1
nRows=30
nColumns=30
inDegrees=yes

Units are S.I. units (second, meters, Newtons, ...)
Angles are in degrees.

endheader
time	floatyaw	floatroll	floatpitch	floatx	floaty	floatz	pro_sup_l	deviation_l	flexion_l	cmc_flexion_l	cmc_abduction_l	mp_flexion_l	ip_flexion_l	2mcp_flexion_l	2mcp_abduction_l	2pm_flexion_l	2md_flexion_l	3mcp_flexion_l	3mcp_abduction_l	3pm_flexion_l	3md_flexion_l	4mcp_flexion_l	4mcp_abduction_l	4pm_flexion_l	4md_flexion_l	5mcp_flexion_l	5mcp_abduction_l	5pm_flexion_l	5md_flexion_l
-0.995000	-160.147433	-5.066637	-73.570646	0.081288	-0.182222	-0.017728	101.444951	3.966542	-0.791209	13.480034	9.514827	-25.886170	-41.337670	30.337642	6.966511	43.434548	29.871163	24.160292	4.275918	45.551508	30.320585	13.098870	-4.389563	52.794247	36.479282	1.835221	-8.152634	61.371709	42.644273
-0.985000	-160.147433	-5.066637	-73.570646	0.081287	-0.182225	-0.017732	101.439549	3.965000	-0.791093	13.453823	9.504039	-25.907156	-41.355619	30.342446	6.966972	43.447535	29.874951	24.146558	4.283761	45.552009	30.317766	13.080127	-4.394934	52.829737	36.491166	1.832486	-8.157446	61.369245	42.636171
-0.975000	-160.147433	-5.066637	-73.570646	0.081286	-0.182225	-0.017733	101.436764	3.965959	-0.791187	13.425638	9.497890	-25.918530	-41.365778	30.345778	6.967126	43.470335	29.883499	24.137446	4.291226	45.554433	30.315021	13.066320	-4.398768	52.857816	36.496923	1.834952	-8.163829	61.367873	42.629640
-0.965000	-160.147433	-5.066637	-73.570646	0.081285	-0.182221	-0.017730	101.439392	3.970322	-0.790056	13.399220	9.500721	-25.919857	-41.366620	30.345303	6.967566	43.502055	29.897109	24.133073	4.296964	45.560373	30.313794	13.058532	-4.401073	52.877858	36.497042	1.842480	-8.169399	61.367902	42.625313
-0.955000	-160.147433	-5.066637	-73.570646	0.081285	-0.182211	-0.017725	101.448099	3.977575	-0.786761	13.377958	9.513281	-25.913741	-41.360961	30.341721	6.969408	43.537235	29.912665	24.132994	4.300330	45.568769	30.313727	13.056030	-4.401957	52.890761	36.493087	1.853641	-8.172700	61.370235	42.623387
-0.945000	-160.147433	-5.066637	-73.570646	0.081287	-0.182197	-0.017718	101.461588	3.986215	-0.781283	13.363354	9.532005	-25.904458	-41.353884	30.338440	6.973764	43.567653	29.924848	24.136236	4.301441	45.577135	30.313291	13.056787	-4.401431	52.898096	36.486929	1.865881	-8.173576	61.376217	42.623860
-0.935000	-160.147433	-5.066637	-73.570646	0.081289	-0.182183	-0.017711	101.477720	3.994641	-0.774332	13.354389	9.550754	-25.896091	-41.349376	30.339583	6.981093	43.585714	29.928733	24.141105	4.300886	45.583970	30.311421	13.058407	-4.399468	52.901596	36.480321	1.876237	-8.172749	61.386579	42.626457
-0.925000	-160.147433	-5.066637	-73.570646	0.081292	-0.182169	-0.017706	101.494625	4.001932	-0.766700	13.348083	9.564158	-25.891135	-41.347708	30.347561	6.990788	43.587890	29.922403	24.145139	4.299293	45.590510	30.308960	13.058997	-4.396204	52.902902	36.474721	1.882344	-8.171076	61.400347	42.630435
-0.915000	-160.147433	-5.066637	-73.570646	0.081294	-0.182157	-0.017703	101.511136	4.008106	-0.758658	13.340825	9.570556	-25.890046	-41.345374	30.361722	7.001278	43.576449	29.908089	24.145705	4.297042	45.600273	30.308621	13.057734	-4.392103	52.903235	36.471076	1.883329	-8.169067	61.414689	42.634553
-0.905000	-160.147433	-5.066637	-73.570646	0.081295	-0.182144	-0.017701	101.526530	4.013840	-0.749818	13.329821	9.572608	-25.891593	-41.337838	30.378946	7.010633	43.558298	29.890960	24.141266	4.294240	45.616331	30.313162	13.055086	-4.387940	52.902873	36.469445	1.880111	-8.166866	61.425957	42.637352
-0.895000	-160.147433	-5.066637	-73.570646	0.081295	-0.182130	-0.017698	101.540011	4.019901	-0.739521	13.313994	9.575289	-25.893749	-41.323320	30.395842	7.017379	43.541262	29.876107	24.132574	4.290920	45.638156	30.322919	13.052607	-4.384552	52.900769	36.468740	1.874760	-8.164433	61.431375	42.637691
-0.885000	-160.147433	-5.066637	-73.570646	0.081295	-0.182113	-0.017693	101.550413	4.026607	-0.727474	13.293982	9.582857	-25.894740	-41.304861	30.411065	7.021043	43.529957	29.865677	24.122778	4.287243	45.660611	30.334656	13.052235	-4.382445	52.894831	36.467037	1.869216	-8.161704	61.430476	42.635315
-0.875000	-160.147433	-5.066637	-73.570646	0.081295	-0.182095	-0.017685	101.556250	4.033548	-0.714302	13.271306	9.596936	-25.893840	-41.289000	30.426128	7.022180	43.523907	29.858145	24.116059	4.283582	45.676355	30.342998	13.055342	-4.381507	52.883102	36.462549	1.864217	-8.158727	61.425544	42.631142
-0.865000	-160.147433	-5.066637	-73.570646	0.081296	-0.182078	-0.017676	101.555984	4.039625	-0.701752	13.247203	9.616590	-25.891661	-41.281965	30.444190	7.021912	43.518898	29.850080	24.115536	4.280453	45.680267	30.343696	13.062007	-4.381079	52.865315	36.454785	1.859123	-8.155882	61.420787	42.627053
-0.855000	-160.147433	-5.066637	-73.570646	0.081298	-0.182067	-0.017666	101.548343	4.043355	-0.692365	13.221905	9.639628	-25.890061	-41.286256	30.467737	7.021262	43.510151	29.838851	24.121709	4.278344	45.672792	30.336457	13.070897	-4.380382	52.843732	36.445077	1.852497	-8.154069	61.420574	42.625254
-0.845000	-160.147433	-5.066637	-73.570646	0.081299	-0.182064	-0.017660	101.532655	4.043330	-0.688567	13.194799	9.663930	-25.891798	-41.299892	30.496740	7.020656	43.495104	29.824344	24.132255	4.277522	45.660014	30.325380	13.079766	-4.379023	52.822534	36.436065	1.842921	-8.154608	61.427562	42.627465
-0.835000	-160.147433	-5.066637	-73.570646	0.081297	-0.182073	-0.017659	101.509217	4.038655	-0.691506	13.165259	9.688305	-25.899723	-41.318246	30.528332	7.019902	43.474609	29.808914	24.143115	4.277879	45.650736	30.316868	13.086312	-4.377219	52.806116	36.430447	1.829768	-8.158758	61.441632	42.634254
-0.825000	-160.147433	-5.066637	-73.570646	0.081293	-0.182090	-0.017664	101.479679	4.029298	-0.700164	13.133446	9.712882	-25.915329	-41.336557	30.558017	7.018657	43.452485	29.796060	24.150133	4.278956	45.652612	30.316503	13.088986	-4.375585	52.797487	36.429847	1.813804	-8.167014	61.460032	42.644737
-0.815000	-160.147433	-5.066637	-73.570646	0.081286	-0.182112	-0.017675	101.447315	4.016328	-0.711302	13.100520	9.738707	-25.937200	-41.351258	30.581495	7.017059	43.433749	29.788703	24.150351	4.280197	45.669390	30.326766	13.087285	-4.374720	52.797750	36.434442	1.797319	-8.178524	61.478538	42.656767
-0.805000	-160.147433	-5.066637	-73.570646	0.081278	-0.182131	-0.017687	101.416895	4.001999	-0.720392	13.068294	9.766189	-25.960556	-41.359671	30.595977	7.016030	43.422218	29.787936	24.142394	4.281345	45.700103	30.346561	13.081322	-4.374888	52.806621	36.443385	1.783377	-8.191039	61.493080	42.667647
-0.795000	-160.147433	-5.066637	-73.570646	0.081271	-0.182141	-0.017698	101.393735	3.989397	-0.723254	13.038699	9.792908	-25.978768	-41.359172	30.600505	7.016931	43.418653	29.792803	24.126140	4.282722	45.739846	30.372240	13.071042	-4.375961	52.823111	36.455440	1.774250	-8.201669	61.501283	42.675228
-0.785000	-160.147433	-5.066637	-73.570646	0.081266	-0.182139	-0.017703	101.381795	3.981422	-0.717699	13.013349	9.812543	-25.986462	-41.347349	30.595697	7.020703	43.420536	29.801067	24.102401	4.285116	45.781349	30.399087	13.055843	-4.377559	52.845625	36.469324	1.769846	-8.208201	61.503390	42.678988
-0.775000	-160.147433	-5.066637	-73.570646	0.081265	-0.182128	-0.017704	101.381546	3.979382	-0.704399	12.993189	9.816618	-25.982554	-41.323549	30.583575	7.027063	43.423602	29.810432	24.073117	4.289237	45.816881	30.422530	13.035071	-4.379261	52.871719	36.483752	1.767214	-8.210232	61.502184	42.680488
-0.765000	-160.147433	-5.066637	-73.570646	0.081268	-0.182112	-0.017701	101.389087	3.982083	-0.686559	12.978213	9.798922	-25.971290	-41.290673	30.567537	7.034402	43.424119	29.819429	24.041736	4.295087	45.840257	30.438955	13.009070	-4.380769	52.898277	36.497487	1.761739	-8.209289	61.501865	42.682805
-0.755000	-160.147433	-5.066637	-73.570646	0.081274	-0.182099	-0.017698	101.397584	3.986274	-0.668535	12.967404	9.759906	-25.960414	-41.255596	30.552021	7.040545	43.420447	29.827471	24.013070	4.301671	45.848409	30.446209	12.979901	-4.381964	52.922336	36.509530	1.749572	-8.207800	61.506244	42.688981
-0.745000	-160.147433	-5.066637	-73.570646	0.081282	-0.182093	-0.017697	101.400543	3.988402	-0.654090	12.959009	9.707845	-25.957258	-41.227381	30.541580	7.043874	43.413027	29.834163	23.992194	4.307283	45.841928	30.443817	12.951048	-4.382796	52.941889	36.519220	1.729984	-8.207612	61.516930	42.700199
-0.735000	-160.147433	-5.066637	-73.570646	0.081291	-0.182095	-0.017699	101.394958	3.986616	-0.645091	12.950996	9.655825	-25.964822	-41.213837	30.539680	7.044068	43.403162	29.838526	23.982743	4.310232	45.824483	30.432974	12.926311	-4.383101	52.955970	36.526095	1.706236	-8.209144	61.532363	42.714704
-0.725000	-160.147433	-5.066637	-73.570646	0.081300	-0.182102	-0.017704	101.382320	3.981666	-0.641140	12.941406	9.616703	-25.980020	-41.218101	30.547758	7.042053	43.391719	29.838867	23.985440	4.309616	45.801604	30.416372	12.908601	-4.382569	52.964140	36.529693	1.684391	-8.211639	61.548287	42.728269
-0.715000	-160.147433	-5.066637	-73.570646	0.081308	-0.182107	-0.017707	101.367047	3.976128	-0.640105	12.928563	9.599033	-25.995163	-41.237079	30.564864	7.039361	43.378720	29.833525	23.997629	4.305751	45.779351	30.397811	12.899233	-4.380949	52.966093	36.529600	1.670586	-8.214053	61.559538	42.736080
-0.705000	-160.147433	-5.066637	-73.570646	0.081316	-0.182106	-0.017709	101.353656	3.972573	-0.639093	12.911313	9.605545	-26.001968	-41.262625	30.587924	7.037446	43.363904	29.822010	24.014151	4.300047	45.762929	30.381382	12.897724	-4.378385	52.961914	36.525866	1.668125	-8.215653	61.562249	42.735092
